<svg version="1.2" xmlns="http://www.w3.org/2000/svg" viewBox="0 0 1200 1200" width="1200" height="1200"><path aria-label=":)" d="M394.1 873c44 0 79.5-29.4 79.5-77.8 0-49.2-35.5-77.7-79.5-77.7-44.5 0-79.9 28.5-79.9 77.7 0 48.4 35.4 77.8 79.9 77.8m0-336.1c44 0 79.5-29.4 79.5-77.7 0-49.3-35.5-77.8-79.5-77.8-44.5 0-79.9 28.5-79.9 77.8 0 48.3 35.4 77.7 79.9 77.7m408.6 63.5c0 216.8-97.6 331.3-212 432.4H668c104.5-82.1 216.8-205.2 216.8-432.4 0-228-112.3-350.3-216.8-432.3h-77.3c114.4 101 212 215.5 212 432.3" style="fill:#fff"/></svg>